<svg xmlns="http://www.w3.org/2000/svg" width="90.05" height="35" viewBox="0 0 90.05 35"><rect class="svg__rect" x="0" y="0" width="90.05" height="35" fill="#005384"/><rect class="svg__rect" x="90.05" y="0" width="0" height="35" fill="#389AD5"/><path class="svg__text" d="M13.95 18.19L13.95 18.19L13.95 17.39Q13.95 16.19 14.38 15.27Q14.80 14.35 15.60 13.85Q16.40 13.35 17.45 13.35L17.45 13.35Q18.86 13.35 19.73 14.12Q20.59 14.89 20.73 16.29L20.73 16.29L19.25 16.29Q19.14 15.37 18.71 14.96Q18.28 14.55 17.45 14.55L17.45 14.55Q16.48 14.55 15.97 15.26Q15.45 15.96 15.44 17.33L15.44 17.33L15.44 18.09Q15.44 19.47 15.93 20.20Q16.43 20.92 17.38 20.92L17.38 20.92Q18.25 20.92 18.69 20.53Q19.13 20.14 19.25 19.22L19.25 19.22L20.73 19.22Q20.60 20.59 19.72 21.35Q18.84 22.12 17.38 22.12L17.38 22.12Q16.36 22.12 15.59 21.63Q14.81 21.15 14.39 20.26Q13.97 19.37 13.95 18.19ZM26.52 22L25.04 22L25.04 13.47L28.04 13.47Q29.52 13.47 30.32 14.13Q31.12 14.79 31.12 16.05L31.12 16.05Q31.12 16.90 30.71 17.48Q30.30 18.06 29.56 18.37L29.56 18.37L31.47 21.92L31.47 22L29.89 22L28.17 18.71L26.52 18.71L26.52 22ZM26.52 14.66L26.52 17.52L28.05 17.52Q28.80 17.52 29.22 17.15Q29.64 16.77 29.64 16.11L29.64 16.11Q29.64 15.43 29.25 15.05Q28.86 14.68 28.09 14.66L28.09 14.66L26.52 14.66ZM41.09 22L35.52 22L35.52 13.47L41.05 13.47L41.05 14.66L37.00 14.66L37.00 17.02L40.50 17.02L40.50 18.19L37.00 18.19L37.00 20.82L41.09 20.82L41.09 22ZM47.74 22L45.29 22L45.29 13.47L47.81 13.47Q48.94 13.47 49.82 13.97Q50.69 14.48 51.17 15.40Q51.65 16.33 51.65 17.52L51.65 17.52L51.65 17.95Q51.65 19.16 51.17 20.08Q50.69 21.00 49.79 21.50Q48.90 22 47.74 22L47.74 22ZM46.77 14.66L46.77 20.82L47.74 20.82Q48.90 20.82 49.53 20.09Q50.15 19.36 50.16 17.99L50.16 17.99L50.16 17.52Q50.16 16.13 49.56 15.40Q48.96 14.66 47.81 14.66L47.81 14.66L46.77 14.66ZM57.68 22L56.21 22L56.21 13.47L57.68 13.47L57.68 22ZM64.17 14.66L61.54 14.66L61.54 13.47L68.31 13.47L68.31 14.66L65.64 14.66L65.64 22L64.17 22L64.17 14.66ZM71.63 19.42L71.63 19.42L73.11 19.42Q73.11 20.15 73.59 20.55Q74.07 20.95 74.97 20.95L74.97 20.95Q75.74 20.95 76.13 20.63Q76.52 20.32 76.52 19.80L76.52 19.80Q76.52 19.24 76.12 18.94Q75.73 18.63 74.70 18.32Q73.67 18.01 73.06 17.63L73.06 17.63Q71.89 16.90 71.89 15.72L71.89 15.72Q71.89 14.69 72.73 14.02Q73.57 13.35 74.91 13.35L74.91 13.35Q75.81 13.35 76.50 13.68Q77.20 14.01 77.60 14.61Q78.00 15.22 78.00 15.96L78.00 15.96L76.52 15.96Q76.52 15.29 76.10 14.91Q75.68 14.54 74.90 14.54L74.90 14.54Q74.18 14.54 73.77 14.85Q73.37 15.16 73.37 15.71L73.37 15.71Q73.37 16.18 73.81 16.50Q74.24 16.81 75.24 17.10Q76.23 17.40 76.84 17.78Q77.44 18.16 77.72 18.65Q78.00 19.13 78.00 19.79L78.00 19.79Q78.00 20.86 77.18 21.49Q76.37 22.12 74.97 22.12L74.97 22.12Q74.04 22.12 73.27 21.77Q72.49 21.43 72.06 20.83Q71.63 20.22 71.63 19.42Z" fill="#FFFFFF"/><path class="svg__text" d="" fill="#FFFFFF" x="103.05"/></svg>