<svg xmlns="http://www.w3.org/2000/svg" width="86.36" height="35" viewBox="0 0 86.36 35"><rect class="svg__rect" x="0" y="0" width="86.36" height="35" fill="#005384"/><rect class="svg__rect" x="86.36" y="0" width="0" height="35" fill="#389AD5"/><path class="svg__text" d="M15.70 22L14.22 22L14.22 13.47L17.22 13.47Q18.69 13.47 19.50 14.13Q20.30 14.79 20.30 16.05L20.30 16.05Q20.30 16.90 19.89 17.48Q19.47 18.06 18.73 18.37L18.73 18.37L20.65 21.92L20.65 22L19.06 22L17.35 18.71L15.70 18.71L15.70 22ZM15.70 14.66L15.70 17.52L17.22 17.52Q17.97 17.52 18.39 17.15Q18.82 16.77 18.82 16.11L18.82 16.11Q18.82 15.43 18.43 15.05Q18.04 14.68 17.26 14.66L17.26 14.66L15.70 14.66ZM30.27 22L24.69 22L24.69 13.47L30.23 13.47L30.23 14.66L26.18 14.66L26.18 17.02L29.68 17.02L29.68 18.19L26.18 18.19L26.18 20.82L30.27 20.82L30.27 22ZM34.03 19.42L34.03 19.42L35.52 19.42Q35.52 20.15 36.00 20.55Q36.48 20.95 37.37 20.95L37.37 20.95Q38.15 20.95 38.54 20.63Q38.93 20.32 38.93 19.80L38.93 19.80Q38.93 19.24 38.53 18.94Q38.14 18.63 37.10 18.32Q36.07 18.01 35.46 17.63L35.46 17.63Q34.30 16.90 34.30 15.72L34.30 15.72Q34.30 14.69 35.14 14.02Q35.98 13.35 37.32 13.35L37.32 13.35Q38.21 13.35 38.91 13.68Q39.61 14.01 40.00 14.61Q40.40 15.22 40.40 15.96L40.40 15.96L38.93 15.96Q38.93 15.29 38.51 14.91Q38.09 14.54 37.31 14.54L37.31 14.54Q36.58 14.54 36.18 14.85Q35.78 15.16 35.78 15.71L35.78 15.71Q35.78 16.18 36.21 16.50Q36.65 16.81 37.64 17.10Q38.64 17.40 39.24 17.78Q39.85 18.16 40.13 18.65Q40.41 19.13 40.41 19.79L40.41 19.79Q40.41 20.86 39.59 21.49Q38.77 22.12 37.37 22.12L37.37 22.12Q36.45 22.12 35.67 21.77Q34.89 21.43 34.46 20.83Q34.03 20.22 34.03 19.42ZM44.56 19.16L44.56 19.16L44.56 13.47L46.04 13.47L46.04 19.18Q46.04 20.03 46.47 20.48Q46.91 20.93 47.75 20.93L47.75 20.93Q49.46 20.93 49.46 19.13L49.46 19.13L49.46 13.47L50.94 13.47L50.94 19.17Q50.94 20.53 50.07 21.32Q49.20 22.12 47.75 22.12L47.75 22.12Q46.29 22.12 45.42 21.33Q44.56 20.55 44.56 19.16ZM56.98 22L55.51 22L55.51 13.47L57.43 13.47L59.89 20.01L62.35 13.47L64.26 13.47L64.26 22L62.79 22L62.79 19.19L62.93 15.43L60.41 22L59.35 22L56.84 15.43L56.98 19.19L56.98 22ZM74.58 22L69.00 22L69.00 13.47L74.54 13.47L74.54 14.66L70.48 14.66L70.48 17.02L73.99 17.02L73.99 18.19L70.48 18.19L70.48 20.82L74.58 20.82L74.58 22Z" fill="#FFFFFF"/><path class="svg__text" d="" fill="#FFFFFF" x="99.36"/></svg>